# White seam ribbon for a 68 mm tennis ball
v 0.034332 0.000000 0.001099
v 0.034332 0.000000 -0.001099
v 0.034266 0.002246 -0.000829
v 0.034143 0.002238 -0.003023
v 0.033949 0.004469 -0.002721
v 0.033707 0.004438 -0.004905
v 0.033394 0.006643 -0.004540
v 0.033041 0.006572 -0.006708
v 0.032626 0.008742 -0.006251
v 0.032173 0.008621 -0.008398
v 0.031672 0.010751 -0.007823
v 0.031134 0.010568 -0.009946
v 0.030568 0.012662 -0.009230
v 0.029960 0.012410 -0.011327
v 0.029347 0.014472 -0.010451
v 0.028688 0.014147 -0.012522
v 0.028041 0.016190 -0.011468
v 0.027349 0.015790 -0.013515
v 0.026677 0.017825 -0.012270
v 0.025970 0.017352 -0.014297
v 0.025274 0.019393 -0.012848
v 0.024570 0.018853 -0.014859
v 0.023844 0.020910 -0.013197
v 0.023160 0.020311 -0.015198
v 0.022391 0.022391 -0.013313
v 0.021743 0.021743 -0.015311
v 0.020910 0.023844 -0.013197
v 0.020311 0.023160 -0.015198
v 0.019393 0.025274 -0.012848
v 0.018853 0.024570 -0.014859
v 0.017825 0.026677 -0.012270
v 0.017352 0.025970 -0.014297
v 0.016190 0.028041 -0.011468
v 0.015790 0.027349 -0.013515
v 0.014472 0.029347 -0.010451
v 0.014147 0.028688 -0.012522
v 0.012662 0.030568 -0.009230
v 0.012410 0.029960 -0.011327
v 0.010751 0.031672 -0.007823
v 0.010568 0.031134 -0.009946
v 0.008742 0.032626 -0.006251
v 0.008621 0.032173 -0.008398
v 0.006643 0.033394 -0.004540
v 0.006572 0.033041 -0.006708
v 0.004469 0.033949 -0.002721
v 0.004438 0.033707 -0.004905
v 0.002246 0.034266 -0.000829
v 0.002238 0.034143 -0.003023
v 0.000000 0.034332 0.001099
v 0.000000 0.034332 -0.001099
v -0.002238 0.034143 0.003023
v -0.002246 0.034266 0.000829
v -0.004438 0.033707 0.004905
v -0.004469 0.033949 0.002721
v -0.006572 0.033041 0.006708
v -0.006643 0.033394 0.004540
v -0.008621 0.032173 0.008398
v -0.008742 0.032626 0.006251
v -0.010568 0.031134 0.009946
v -0.010751 0.031672 0.007823
v -0.012410 0.029960 0.011327
v -0.012662 0.030568 0.009230
v -0.014147 0.028688 0.012522
v -0.014472 0.029347 0.010451
v -0.015790 0.027349 0.013515
v -0.016190 0.028041 0.011468
v -0.017352 0.025970 0.014297
v -0.017825 0.026677 0.012270
v -0.018853 0.024570 0.014859
v -0.019393 0.025274 0.012848
v -0.020311 0.023160 0.015198
v -0.020910 0.023844 0.013197
v -0.021743 0.021743 0.015311
v -0.022391 0.022391 0.013313
v -0.023160 0.020311 0.015198
v -0.023844 0.020910 0.013197
v -0.024570 0.018853 0.014859
v -0.025274 0.019393 0.012848
v -0.025970 0.017352 0.014297
v -0.026677 0.017825 0.012270
v -0.027349 0.015790 0.013515
v -0.028041 0.016190 0.011468
v -0.028688 0.014147 0.012522
v -0.029347 0.014472 0.010451
v -0.029960 0.012410 0.011327
v -0.030568 0.012662 0.009230
v -0.031134 0.010568 0.009946
v -0.031672 0.010751 0.007823
v -0.032173 0.008621 0.008398
v -0.032626 0.008742 0.006251
v -0.033041 0.006572 0.006708
v -0.033394 0.006643 0.004540
v -0.033707 0.004438 0.004905
v -0.033949 0.004469 0.002721
v -0.034143 0.002238 0.003023
v -0.034266 0.002246 0.000829
v -0.034332 0.000000 0.001099
v -0.034332 0.000000 -0.001099
v -0.034266 -0.002246 -0.000829
v -0.034143 -0.002238 -0.003023
v -0.033949 -0.004469 -0.002721
v -0.033707 -0.004438 -0.004905
v -0.033394 -0.006643 -0.004540
v -0.033041 -0.006572 -0.006708
v -0.032626 -0.008742 -0.006251
v -0.032173 -0.008621 -0.008398
v -0.031672 -0.010751 -0.007823
v -0.031134 -0.010568 -0.009946
v -0.030568 -0.012662 -0.009230
v -0.029960 -0.012410 -0.011327
v -0.029347 -0.014472 -0.010451
v -0.028688 -0.014147 -0.012522
v -0.028041 -0.016190 -0.011468
v -0.027349 -0.015790 -0.013515
v -0.026677 -0.017825 -0.012270
v -0.025970 -0.017352 -0.014297
v -0.025274 -0.019393 -0.012848
v -0.024570 -0.018853 -0.014859
v -0.023844 -0.020910 -0.013197
v -0.023160 -0.020311 -0.015198
v -0.022391 -0.022391 -0.013313
v -0.021743 -0.021743 -0.015311
v -0.020910 -0.023844 -0.013197
v -0.020311 -0.023160 -0.015198
v -0.019393 -0.025274 -0.012848
v -0.018853 -0.024570 -0.014859
v -0.017825 -0.026677 -0.012270
v -0.017352 -0.025970 -0.014297
v -0.016190 -0.028041 -0.011468
v -0.015790 -0.027349 -0.013515
v -0.014472 -0.029347 -0.010451
v -0.014147 -0.028688 -0.012522
v -0.012662 -0.030568 -0.009230
v -0.012410 -0.029960 -0.011327
v -0.010751 -0.031672 -0.007823
v -0.010568 -0.031134 -0.009946
v -0.008742 -0.032626 -0.006251
v -0.008621 -0.032173 -0.008398
v -0.006643 -0.033394 -0.004540
v -0.006572 -0.033041 -0.006708
v -0.004469 -0.033949 -0.002721
v -0.004438 -0.033707 -0.004905
v -0.002246 -0.034266 -0.000829
v -0.002238 -0.034143 -0.003023
v -0.000000 -0.034332 0.001099
v -0.000000 -0.034332 -0.001099
v 0.002238 -0.034143 0.003023
v 0.002246 -0.034266 0.000829
v 0.004438 -0.033707 0.004905
v 0.004469 -0.033949 0.002721
v 0.006572 -0.033041 0.006708
v 0.006643 -0.033394 0.004540
v 0.008621 -0.032173 0.008398
v 0.008742 -0.032626 0.006251
v 0.010568 -0.031134 0.009946
v 0.010751 -0.031672 0.007823
v 0.012410 -0.029960 0.011327
v 0.012662 -0.030568 0.009230
v 0.014147 -0.028688 0.012522
v 0.014472 -0.029347 0.010451
v 0.015790 -0.027349 0.013515
v 0.016190 -0.028041 0.011468
v 0.017352 -0.025970 0.014297
v 0.017825 -0.026677 0.012270
v 0.018853 -0.024570 0.014859
v 0.019393 -0.025274 0.012848
v 0.020311 -0.023160 0.015198
v 0.020910 -0.023844 0.013197
v 0.021743 -0.021743 0.015311
v 0.022391 -0.022391 0.013313
v 0.023160 -0.020311 0.015198
v 0.023844 -0.020910 0.013197
v 0.024570 -0.018853 0.014859
v 0.025274 -0.019393 0.012848
v 0.025970 -0.017352 0.014297
v 0.026677 -0.017825 0.012270
v 0.027349 -0.015790 0.013515
v 0.028041 -0.016190 0.011468
v 0.028688 -0.014147 0.012522
v 0.029347 -0.014472 0.010451
v 0.029960 -0.012410 0.011327
v 0.030568 -0.012662 0.009230
v 0.031134 -0.010568 0.009946
v 0.031672 -0.010751 0.007823
v 0.032173 -0.008621 0.008398
v 0.032626 -0.008742 0.006251
v 0.033041 -0.006572 0.006708
v 0.033394 -0.006643 0.004540
v 0.033707 -0.004438 0.004905
v 0.033949 -0.004469 0.002721
v 0.034143 -0.002238 0.003023
v 0.034266 -0.002246 0.000829
f 1 2 4
f 1 4 3
f 3 4 6
f 3 6 5
f 5 6 8
f 5 8 7
f 7 8 10
f 7 10 9
f 9 10 12
f 9 12 11
f 11 12 14
f 11 14 13
f 13 14 16
f 13 16 15
f 15 16 18
f 15 18 17
f 17 18 20
f 17 20 19
f 19 20 22
f 19 22 21
f 21 22 24
f 21 24 23
f 23 24 26
f 23 26 25
f 25 26 28
f 25 28 27
f 27 28 30
f 27 30 29
f 29 30 32
f 29 32 31
f 31 32 34
f 31 34 33
f 33 34 36
f 33 36 35
f 35 36 38
f 35 38 37
f 37 38 40
f 37 40 39
f 39 40 42
f 39 42 41
f 41 42 44
f 41 44 43
f 43 44 46
f 43 46 45
f 45 46 48
f 45 48 47
f 47 48 50
f 47 50 49
f 49 50 52
f 49 52 51
f 51 52 54
f 51 54 53
f 53 54 56
f 53 56 55
f 55 56 58
f 55 58 57
f 57 58 60
f 57 60 59
f 59 60 62
f 59 62 61
f 61 62 64
f 61 64 63
f 63 64 66
f 63 66 65
f 65 66 68
f 65 68 67
f 67 68 70
f 67 70 69
f 69 70 72
f 69 72 71
f 71 72 74
f 71 74 73
f 73 74 76
f 73 76 75
f 75 76 78
f 75 78 77
f 77 78 80
f 77 80 79
f 79 80 82
f 79 82 81
f 81 82 84
f 81 84 83
f 83 84 86
f 83 86 85
f 85 86 88
f 85 88 87
f 87 88 90
f 87 90 89
f 89 90 92
f 89 92 91
f 91 92 94
f 91 94 93
f 93 94 96
f 93 96 95
f 95 96 98
f 95 98 97
f 97 98 100
f 97 100 99
f 99 100 102
f 99 102 101
f 101 102 104
f 101 104 103
f 103 104 106
f 103 106 105
f 105 106 108
f 105 108 107
f 107 108 110
f 107 110 109
f 109 110 112
f 109 112 111
f 111 112 114
f 111 114 113
f 113 114 116
f 113 116 115
f 115 116 118
f 115 118 117
f 117 118 120
f 117 120 119
f 119 120 122
f 119 122 121
f 121 122 124
f 121 124 123
f 123 124 126
f 123 126 125
f 125 126 128
f 125 128 127
f 127 128 130
f 127 130 129
f 129 130 132
f 129 132 131
f 131 132 134
f 131 134 133
f 133 134 136
f 133 136 135
f 135 136 138
f 135 138 137
f 137 138 140
f 137 140 139
f 139 140 142
f 139 142 141
f 141 142 144
f 141 144 143
f 143 144 146
f 143 146 145
f 145 146 148
f 145 148 147
f 147 148 150
f 147 150 149
f 149 150 152
f 149 152 151
f 151 152 154
f 151 154 153
f 153 154 156
f 153 156 155
f 155 156 158
f 155 158 157
f 157 158 160
f 157 160 159
f 159 160 162
f 159 162 161
f 161 162 164
f 161 164 163
f 163 164 166
f 163 166 165
f 165 166 168
f 165 168 167
f 167 168 170
f 167 170 169
f 169 170 172
f 169 172 171
f 171 172 174
f 171 174 173
f 173 174 176
f 173 176 175
f 175 176 178
f 175 178 177
f 177 178 180
f 177 180 179
f 179 180 182
f 179 182 181
f 181 182 184
f 181 184 183
f 183 184 186
f 183 186 185
f 185 186 188
f 185 188 187
f 187 188 190
f 187 190 189
f 189 190 192
f 189 192 191
f 191 192 2
f 191 2 1
